# xmcd CD database file
#
# Track frame offsets:
#	150
#	23327
#	40930
#	61390
#	74335
#	89597
#	105822
#	128805
#	145507
#	159632
#	181515
#	205897
#
# Disc length: 2936 seconds
#
# Revision: 0
# Processed by: cddbd v1.5.2PL0 Copyright (c) Steve Scherf et al.
# Submitted via: CDex 1.51
#
DISCID=930b760c
DTITLE=Wolverines Big Band - Moonlight Serenade and More Hits of the Big Bands
DYEAR=1988
DGENRE=Jazz
TTITLE0=Clap Hands, Here Comes Charlie (Charlie Barnett)
TTITLE1=Cottontail (Duke Ellington)
TTITLE2=Stompin' at the Savor (Benny Goodman)
TTITLE3=Things Ain't What They Used to Be (Duke Ellington)
TTITLE4=Farewell Blues (Glenn Miller)
TTITLE5=Four Brothers (Woody Herman)
TTITLE6=Lush Life (Duke Ellington)
TTITLE7=Misty (Count Basie)
TTITLE8=Moonlight Serenade (Glenn Miller)
TTITLE9=Love for Sale (Buddy Rich)
TTITLE10=Stella by Starlight (Stan Kenton)
TTITLE11=Jumpin' at the Woodside (Count Basie)
EXTD=YEAR: 1988
EXTT0=
EXTT1=
EXTT2=
EXTT3=
EXTT4=
EXTT5=
EXTT6=
EXTT7=
EXTT8=
EXTT9=
EXTT10=
EXTT11=
PLAYORDER=
